<svg xmlns="http://www.w3.org/2000/svg" width="42" height="6.969" viewBox="0 0 42 6.969">
  <metadata><?xpacket begin="﻿" id="W5M0MpCehiHzreSzNTczkc9d"?>
<x:xmpmeta xmlns:x="adobe:ns:meta/" x:xmptk="Adobe XMP Core 5.6-c140 79.160451, 2017/05/06-01:08:21        ">
   <rdf:RDF xmlns:rdf="http://www.w3.org/1999/02/22-rdf-syntax-ns#">
      <rdf:Description rdf:about=""/>
   </rdf:RDF>
</x:xmpmeta>
                                                                                                    
                                                                                                    
                                                                                                    
                                                                                                    
                                                                                                    
                                                                                                    
                                                                                                    
                                                                                                    
                                                                                                    
                                                                                                    
                                                                                                    
                                                                                                    
                                                                                                    
                                                                                                    
                                                                                                    
                                                                                                    
                                                                                                    
                                                                                                    
                                                                                                    
                                                                                                    
                           
<?xpacket end="w"?></metadata>
<defs>
    <style>
      .cls-1 {
        fill: #fff;
        fill-rule: evenodd;
      }
    </style>
  </defs>
  <path id="_copy_6" data-name=" copy 6" class="cls-1" d="M1095,568.138h39.57l-1.83,1.641a0.64,0.64,0,0,0-.19.374,0.512,0.512,0,0,0,.12.375l0.14,0.188a0.572,0.572,0,0,0,.8,0l2.98-2.7a0.021,0.021,0,0,0,.02-0.024l0.19-.187a0.451,0.451,0,0,0,.16-0.363,0.522,0.522,0,0,0-.16-0.387l-0.19-.188h-0.02v-0.023l-3.03-2.766a1,1,0,0,0-.2-0.117,0.493,0.493,0,0,0-.42,0,0.487,0.487,0,0,0-.17.117l-0.15.188a0.466,0.466,0,0,0-.11.375,0.592,0.592,0,0,0,.19.375l1.78,1.617h-39.5Z" transform="translate(-1094.97 -563.906)"/>
</svg>
