<svg xmlns="http://www.w3.org/2000/svg" width="42" height="6.97" viewBox="0 0 42 6.97">
  <metadata><?xpacket begin="﻿" id="W5M0MpCehiHzreSzNTczkc9d"?>
<x:xmpmeta xmlns:x="adobe:ns:meta/" x:xmptk="Adobe XMP Core 5.6-c140 79.160451, 2017/05/06-01:08:21        ">
   <rdf:RDF xmlns:rdf="http://www.w3.org/1999/02/22-rdf-syntax-ns#">
      <rdf:Description rdf:about=""/>
   </rdf:RDF>
</x:xmpmeta>
                                                                                                    
                                                                                                    
                                                                                                    
                                                                                                    
                                                                                                    
                                                                                                    
                                                                                                    
                                                                                                    
                                                                                                    
                                                                                                    
                                                                                                    
                                                                                                    
                                                                                                    
                                                                                                    
                                                                                                    
                                                                                                    
                                                                                                    
                                                                                                    
                                                                                                    
                                                                                                    
                           
<?xpacket end="w"?></metadata>
<defs>
    <style>
      .cls-1 {
        fill: #9197a1;
        fill-rule: evenodd;
      }
    </style>
  </defs>
  <path id="_copy_2" data-name=" copy 2" class="cls-1" d="M741,1254.14H780.57l-1.828,1.64a0.606,0.606,0,0,0-.187.37,0.484,0.484,0,0,0,.117.38l0.14,0.19a0.576,0.576,0,0,0,.8,0l2.977-2.7a0.021,0.021,0,0,0,.023-0.02l0.188-.19a0.457,0.457,0,0,0,.164-0.36,0.536,0.536,0,0,0-.164-0.39l-0.188-.19h-0.023v-0.02l-3.024-2.77a1.368,1.368,0,0,0-.2-0.11,0.47,0.47,0,0,0-.422,0,0.7,0.7,0,0,0-.176.11l-0.14.19a0.473,0.473,0,0,0-.117.38,0.606,0.606,0,0,0,.187.37l1.781,1.62h-39.5Z" transform="translate(-740.969 -1249.91)"/>
</svg>
